# xmcd CD database file
#
# Track frame offsets:
#	150
#	11545
#	23410
#	34257
#	41172
#	49845
#	62045
#	73182
#	83904
#	92607
#	103137
#	111990
#	122495
#	132977
#
# Disc length: 1898 seconds
#
# Revision: 0
# Processed by: cddbd v1.4PL0 Copyright (c) Steve Scherf et al.
# Submitted via: CDex 1.51
#
DISCID=bc07680e
DTITLE=Waylon Jennings - Gold
DYEAR=1900
DGENRE=Country
TTITLE0=Sally was a good old girl
TTITLE1=Crying
TTITLE2=Dream baby
TTITLE3=It's so easy
TTITLE4=Abilene
TTITLE5=Don't think twice, it's allright
TTITLE6=Big mamou
TTITLE7=Burning memories
TTITLE8=Jole blond
TTITLE9=Lorena
TTITLE10=Love's gonna live here
TTITLE11=Money
TTITLE12=White lightnin'
TTITLE13=When sin stops
EXTD=
EXTT0=
EXTT1=
EXTT2=
EXTT3=
EXTT4=
EXTT5=
EXTT6=
EXTT7=
EXTT8=
EXTT9=
EXTT10=
EXTT11=
EXTT12=
EXTT13=
PLAYORDER=
